#!OML:ASF F:\VICON\USERDATA\INSTALL\rory3\rory3.ASF
:FULLY-SPECIFIED
:DEGREES
1429
root 3.26529 15.3041 14.1557 -368.464 -14.4562 353.993
lowerback 3.61878 2.05058 -2.6853
upperback 2.5397 2.65571 1.97382
thorax 0.367453 1.28515 3.44482
lowerneck -15.3049 3.02912 3.34122
upperneck 33.4855 3.65345 -0.701142
head 14.0588 1.88497 -0.274488
rclavicle 1.35422e-014 1.59028e-014
rhumerus -32.9747 8.43678 -76.887
rradius 27.6814
rwrist -18.4117
rhand -19.5172 28.6865
rfingers 7.12502
rthumb 6.80592 -1.18413
lclavicle 1.35422e-014 1.59028e-014
lhumerus -52.8176 22.501 69.7287
lradius 24.0774
lwrist -7.80532
lhand 3.73764 15.3619
lfingers 7.12502
lthumb 29.1652 43.0971
rfemur -215.441 -177.793 196.159
rtibia 78.1296
rfoot 166.009 -198.802
rtoes 3.64346
lfemur -36.1833 2.74318 -17.8634
ltibia 61.6998
lfoot -20.4383 16.1435
ltoes 2.71271
1430
root 3.25794 15.2587 14.3075 -369.839 -14.3526 353.301
lowerback 5.13069 1.8634 -2.12181
upperback 3.08531 2.39455 2.16046
thorax 0.12129 1.15468 3.29219
lowerneck -15.4241 3.13464 3.93829
upperneck 33.6762 3.76863 -1.13349
head 14.2026 1.94838 -0.53112
rclavicle -2.86498e-014 7.95139e-016
rhumerus -28.7842 9.92431 -80.6529
rradius 28.9751
rwrist -15.7813
rhand -20.4012 29.0239
rfingers 7.12502
rthumb 5.95246 -0.87244
lclavicle -2.86498e-014 7.95139e-016
lhumerus -46.3941 21.4386 72.8637
lradius 24.4181
lwrist -7.13074
lhand 0.682104 16.713
lfingers 7.12502
lthumb 26.2435 44.9182
rfemur -218.052 -180.047 196.172
rtibia 75.1989
rfoot 164.954 -202.15
rtoes 0.0853785
lfemur -34.5017 3.05058 -17.2228
ltibia 62.6021
lfoot -21.1109 15.5205
ltoes 4.02278
1431
root 3.24505 15.2319 14.4504 -370.885 -14.4453 352.449
lowerback 6.55757 1.75121 -1.4011
upperback 3.35872 2.26401 2.39451
thorax -0.362443 1.09742 3.09791
lowerneck -15.473 3.11925 4.04302
upperneck 34.1447 3.65969 -0.988689
head 14.4229 1.93302 -0.507262
rclavicle 2.81529e-014 -1.59028e-015
rhumerus -24.6152 12.3593 -84.2992
rradius 30.0587
rwrist -14.252
rhand -22.1659 31.3555
rfingers 7.12502
rthumb 4.24856 1.41815
lclavicle 2.81529e-014 -1.59028e-015
lhumerus -40.3955 19.1995 75.7263
lradius 25.3447
lwrist -5.43148
lhand -2.61064 17.8481
lfingers 7.12502
lthumb 23.0876 46.4849
rfemur -220.929 -182.686 196.094
rtibia 71.67
rfoot 162.42 -205.002
rtoes 1.06027
lfemur -33.0673 3.54441 -16.2709
ltibia 63.3825
lfoot -21.4357 15.0038
ltoes 5.65322
1432
root 3.23516 15.2345 14.596 -371.99 -14.2129 352.436
lowerback 7.76784 1.66394 -1.42034
upperback 3.512 2.1373 2.37029
thorax -0.865165 1.03683 3.06292
lowerneck -15.4009 3.06146 3.92617
upperneck 34.7456 3.43704 -0.495721
head 14.6629 1.89071 -0.321682
rclavicle 3.72721e-016 1.35174e-014
rhumerus -20.5459 15.0937 -87.3744
rradius 31.6858
rwrist -13.6988
rhand -22.543 32.1402
rfingers 7.12502
rthumb 3.88445 2.19586
lclavicle 3.72721e-016 1.35174e-014
lhumerus -34.4776 16.5024 77.7913
lradius 25.7981
lwrist -3.7722
lhand -6.5473 17.3556
lfingers 7.12502
lthumb 19.3062 46.4173
rfemur -223.738 -185.052 194.533
rtibia 67.6727
rfoot 158.708 -206.715
rtoes 6.44047
lfemur -31.45 3.80039 -16.2853
ltibia 63.7387
lfoot -21.6395 14.7186
ltoes 6.79806
1433
root 3.22656 15.2466 14.7406 -373 -13.905 352.868
lowerback 9.01452 1.64325 -1.87016
upperback 3.38323 2.06372 2.22684
thorax -1.69067 1.00843 3.14171
lowerneck -14.9951 3.05184 4.14656
upperneck 35.2317 3.28607 -0.26273
head 14.7949 1.89069 -0.293388
rclavicle 1.51076e-014 1.98785e-014
rhumerus -16.7201 17.5488 -89.8224
rradius 33.4334
rwrist -13.0952
rhand -21.769 33.5184
rfingers 7.12502
rthumb 4.63187 3.58907
lclavicle 1.51076e-014 1.98785e-014
lhumerus -28.8857 12.7054 79.349
lradius 27.276
lwrist -0.776642
lhand -8.94509 18.2499
lfingers 7.12502
lthumb 16.9993 47.5261
rfemur -226.415 -187.021 192.161
rtibia 63.1423
rfoot 155.82 -208.509
rtoes 16.2589
lfemur -29.9066 3.95704 -16.818
ltibia 63.7814
lfoot -21.9469 14.5272
ltoes 7.52622
1434
root 3.21475 15.2789 14.8727 -373.896 -13.9953 352.661
lowerback 10.267 1.79943 -1.70739
upperback 3.29804 2.27531 2.25542
thorax -2.4776 1.12374 3.0224
lowerneck -14.763 2.98987 4.67638
upperneck 35.6503 3 -0.162655
head 14.9453 1.85792 -0.39381
rclavicle -2.25621e-014 0
rhumerus -12.6488 20.3787 -91.7757
rradius 35.4097
rwrist -13.5705
rhand -21.2513 34.2262
rfingers 7.12502
rthumb 5.13174 4.30833
lclavicle -2.25621e-014 0
lhumerus -23.1745 8.80307 80.0401
lradius 28.7572
lwrist 0.615907
lhand -9.31318 20.991
lfingers 7.12502
lthumb 16.6449 50.2972
rfemur -228.93 -189.044 190.349
rtibia 58.2517
rfoot 152.695 -210.321
rtoes 17.6352
lfemur -28.2421 4.45806 -16.4881
ltibia 63.5664
lfoot -22.1877 14.3019
ltoes 7.29876
1435
root 3.19842 15.3141 15.0065 -374.772 -13.9279 352.185
lowerback 11.2975 1.95564 -1.21017
upperback 3.36765 2.5308 2.34603
thorax -2.9708 1.25333 2.7752
lowerneck -14.9342 2.81472 4.77755
upperneck 36.1783 2.51794 0.307243
head 15.2213 1.73821 -0.290845
rclavicle 4.22417e-015 -6.36111e-015
rhumerus -8.07582 23.7657 -92.7507
rradius 37.4127
rwrist -14.1817
rhand -20.6238 33.6713
rfingers 7.12502
rthumb 5.73758 3.76898
lclavicle 4.22417e-015 -6.36111e-015
lhumerus -17.1446 4.81108 80.1564
lradius 30.4241
lwrist 0.929313
lhand -12.8005 19.7872
lfingers 7.12502
lthumb 13.2855 49.3438
rfemur -231.368 -190.768 188.473
rtibia 53.432
rfoot 149.352 -212.442
rtoes 24.5024
lfemur -26.2179 5.01559 -15.8466
ltibia 62.8611
lfoot -22.5136 13.426
ltoes 9.00947
1436
root 3.16859 15.3375 15.137 -375.305 -13.7476 351.89
lowerback 12.1483 2.19875 -1.02736
upperback 3.22304 2.8812 2.45941
thorax -3.60519 1.43258 2.7103
lowerneck -14.8513 2.67841 4.86991
upperneck 36.4856 2.13899 0.710854
head 15.34 1.65426 -0.199727
rclavicle -2.0276e-014 -3.02153e-014
rhumerus -3.30797 27.1067 -92.7116
rradius 39.5288
rwrist -14.2162
rhand -20.2648 35.5038
rfingers 7.12502
rthumb 6.08415 5.61112
lclavicle -2.0276e-014 -3.02153e-014
lhumerus -11.0984 1.12431 79.8375
lradius 32.1153
lwrist 0.817104
lhand -15.1741 19.1347
lfingers 7.12502
lthumb 10.9969 48.8267
rfemur -234.568 -192.499 185.754
rtibia 49.1029
rfoot 144.821 -212.861
rtoes 32.6019
lfemur -24.266 5.63211 -15.3402
ltibia 61.8494
lfoot -23.1229 11.316
ltoes 14.6865
1437
root 3.16383 15.4356 15.3081 -376.697 -12.5294 354.845
lowerback 11.9516 2.68089 -3.81365
upperback 3.4746 3.15507 1.65865
thorax -3.34797 1.57531 3.41426
lowerneck -14.5217 2.57214 5.00153
upperneck 36.2814 1.86469 0.999003
head 15.1578 1.6002 -0.153372
rclavicle -7.7526e-015 2.8625e-014
rhumerus 1.9716 30.2803 -91.4941
rradius 42.0046
rwrist -14.2727
rhand -19.342 34.9565
rfingers 7.12502
rthumb 6.97501 5.09139
lclavicle -7.7526e-015 2.8625e-014
lhumerus -4.50056 -1.46522 79.2416
lradius 33.618
lwrist -1.20651
lhand -15.4471 17.8078
lfingers 7.12502
lthumb 10.7335 47.5136
rfemur -237.305 -192.677 179.426
rtibia 45.1991
rfoot 141.885 -211.507
rtoes 37.9774
lfemur -21.739 6.00964 -18.9933
ltibia 60.1312
lfoot -21.9556 13.314
ltoes 7.51286
1438
root 3.16545 15.546 15.4182 -376.355 -10.2658 355.025
lowerback 11.2655 2.39534 -4.2707
upperback 3.3844 2.74908 1.54057
thorax -3.04433 1.37236 3.63213
lowerneck -14.3547 2.64462 5.18324
upperneck 35.8698 1.89268 1.15789
head 14.9262 1.66044 -0.118666
rclavicle 3.77691e-015 -4.29375e-014
rhumerus 7.45631 32.8051 -89.3047
rradius 44.36
rwrist -13.4658
rhand -18.9305 36.1996
rfingers 7.12502
rthumb 7.37228 6.34801
lclavicle 3.77691e-015 -4.29375e-014
lhumerus 2.23175 -4.13213 78.3145
lradius 35.2974
lwrist -2.68092
lhand -16.4887 16.3189
lfingers 7.12502
lthumb 9.72868 46.0742
rfemur -241.362 -193.641 173.144
rtibia 42.6794
rfoot 136.69 -211.805
rtoes 36.7824
lfemur -21.0349 4.9993 -19.8803
ltibia 58.0396
lfoot -20.5073 13.3442
ltoes 5.96705
1439
root 3.14372 15.6483 15.5169 -375.077 -10.2109 353.656
lowerback 10.304 2.63115 -3.06308
upperback 2.79963 3.24127 1.91554
thorax -3.13234 1.6273 3.29435
lowerneck -14.2384 2.65602 5.30606
upperneck 35.8649 1.77871 1.48323
head 14.8965 1.68106 -0.0232579
rclavicle 7.95139e-016 2.62396e-014
rhumerus 13.6747 36.2308 -85.6784
rradius 46.9254
rwrist -15.0433
rhand -18.9235 35.5724
rfingers 7.12502
rthumb 7.379 5.7211
lclavicle 7.95139e-016 2.62396e-014
lhumerus 8.34919 -7.46074 76.5663
lradius 37.5434
lwrist -3.65586
lhand -17.1777 16.6374
lfingers 7.12502
lthumb 9.06384 46.4227
rfemur -247.511 -198.11 165.365
rtibia 40.2573
rfoot 130.647 -213.58
rtoes 41.4896
lfemur -21.4056 5.81186 -18.1849
ltibia 56.7062
lfoot -19.5394 12.3435
ltoes 6.84475
1440
root 3.20077 15.7921 15.78 -377.388 -6.39922 359.612
lowerback 10.2408 2.79219 -8.52757
upperback 3.05194 2.83404 0.0704054
thorax -2.94842 1.43168 4.50303
lowerneck -13.6593 2.47767 5.01635
upperneck 36.1176 1.49981 1.91174
head 14.8678 1.59293 0.15652
rclavicle -3.47873e-015 -5.56597e-015
rhumerus 19.6496 38.7053 -81.4389
rradius 49.4137
rwrist -16.7215
rhand -18.6841 34.9655
rfingers 7.12502
rthumb 7.61005 5.12238
lclavicle -3.47873e-015 -5.56597e-015
lhumerus 13.8225 -10.3029 74.5641
lradius 39.8786
lwrist -4.8378
lhand -16.7095 16.6723
lfingers 7.12502
lthumb 9.51565 46.4374
rfemur -249.136 -197.573 152.315
rtibia 38.8199
rfoot 132.552 -216.226
rtoes 42.9273
lfemur -16.9761 4.1735 -26.1996
ltibia 54.3791
lfoot -20.2921 12.9956
ltoes 6.5296
1441
root 3.1433 15.8568 15.7881 -373.909 -4.83089 355.692
lowerback 9.04059 2.24033 -5.29615
upperback 1.96862 2.51845 1.06588
thorax -3.29328 1.30189 3.78871
lowerneck -15.0823 2.29516 4.61976
upperneck 36.616 1.09763 2.34049
head 15.4283 1.44788 0.369635
rclavicle -3.48867e-014 8.74653e-015
rhumerus 26.7721 38.6765 -76.798
rradius 51.7605
rwrist -16.7862
rhand -17.4675 37.2627
rfingers 7.12502
rthumb 8.78421 7.46552
lclavicle -3.48867e-014 8.74653e-015
lhumerus 20.9474 -11.74 72.4999
lradius 41.4043
lwrist -6.2729
lhand -18.2267 17.586
lfingers 7.12502
lthumb 8.05155 47.4127
rfemur -250.628 -180.108 167.308
rtibia 36.9993
rfoot 148.311 -195.929
rtoes 49.7272
lfemur -20.9471 3.06277 -22.2185
ltibia 54.3341
lfoot -18.3469 12.1063
ltoes 5.58417
1442
root 3.04202 15.9717 15.9173 -373.359 -5.15584 350.679
lowerback 8.24956 2.38599 -1.02811
upperback 2.09533 3.16881 2.60342
thorax -2.65408 1.58956 2.9373
lowerneck -15.8733 2.058 4.7902
upperneck 36.5064 0.774136 2.01233
head 15.5609 1.29711 0.153565
rclavicle -2.28602e-015 1.82882e-014
rhumerus 33.5894 38.2852 -72.1727
rradius 54.4578
rwrist -19.3962
rhand -17.043 35.5852
rfingers 7.12502
rthumb 9.19388 5.80562
lclavicle -2.28602e-015 1.82882e-014
lhumerus 27.8163 -13.5642 69.3771
lradius 43.4564
lwrist -6.86189
lhand -17.5587 17.3811
lfingers 7.12502
lthumb 8.69624 47.1819
rfemur -254.593 -167.673 185.277
rtibia 36.0168
rfoot 164.921 -178.605
rtoes 58.6905
lfemur -20.6864 4.33257 -15.9535
ltibia 53.7769
lfoot -17.0623 10.6257
ltoes 2.53476
1443
root 2.99818 16.0843 16.0587 -373.05 -3.34337 349.987
lowerback 8.11576 2.33706 -0.818867
upperback 1.73205 3.1414 2.95624
thorax -2.9633 1.58243 3.18631
lowerneck -16.0642 1.83091 4.81074
upperneck 36.4525 0.704181 1.30729
head 15.5745 1.17739 -0.160461
rclavicle 1.81888e-014 1.74931e-014
rhumerus 39.7327 37.6311 -67.6772
rradius 56.8589
rwrist -22.9228
rhand -16.9628 34.4047
rfingers 7.12502
rthumb 9.2712 4.62859
lclavicle 1.81888e-014 1.74931e-014
lhumerus 33.684 -15.0876 65.8551
lradius 45.5999
lwrist -6.43206
lhand -20.0888 18.823
lfingers 7.12502
lthumb 6.25405 48.7107
rfemur -262.666 -156.225 200.902
rtibia 34.9907
rfoot 183.952 -173.304
rtoes 60.2286
lfemur -20.3293 3.74025 -15.5629
ltibia 53.2828
lfoot -16.8426 10.1428
ltoes 0.350093
